<?xml version="1.0" encoding="utf-8"?>
<!-- Generator: Adobe Illustrator 16.0.0, SVG Export Plug-In . SVG Version: 6.00 Build 0)  -->
<!DOCTYPE svg PUBLIC "-//W3C//DTD SVG 1.1//EN" "http://www.w3.org/Graphics/SVG/1.1/DTD/svg11.dtd">
<svg version="1.1" id="Layer_1" xmlns="http://www.w3.org/2000/svg" xmlns:xlink="http://www.w3.org/1999/xlink" x="0px" y="0px"
	 width="256px" height="256px" viewBox="0 0 256 256" enable-background="new 0 0 256 256" xml:space="preserve">
<g>
	<path fill="#FFFFFF" d="M32.117,21.057"/>
	<rect x="34.024" y="191.152" fill="#FFFFFF" width="187.952" height="13.048"/>
	<g>
		<polygon fill="#FFFFFF" points="58.688,42.182 58.688,164.678 71.736,164.678 71.736,52.132 		"/>
		<polygon fill="#FFFFFF" points="89.887,69.55 89.887,164.678 102.935,164.678 102.935,79.5 		"/>
		<polygon fill="#FFFFFF" points="121.085,96.917 121.085,164.678 134.134,164.678 134.134,106.867 		"/>
	</g>
	<polygon fill="#FFFFFF" points="183.462,42.182 183.462,164.678 196.51,164.678 196.51,52.132 	"/>
	<polygon fill="#FFFFFF" points="152.273,69.55 152.273,164.678 165.322,164.678 165.322,79.5 	"/>
	<polygon fill="#FFFFFF" points="27.5,14.823 27.5,243.177 40.548,243.177 40.548,24.563 	"/>
	<polygon fill="#FFFFFF" points="215.451,14.823 215.451,243.177 228.499,243.177 228.499,24.563 	"/>
	<rect x="89.887" y="184.868" fill="#FFFFFF" width="13.048" height="16.979"/>
	<rect x="58.688" y="184.868" fill="#FFFFFF" width="13.048" height="16.979"/>
	<rect x="152.273" y="184.868" fill="#FFFFFF" width="13.049" height="16.979"/>
	<rect x="121.085" y="184.868" fill="#FFFFFF" width="13.049" height="16.979"/>
	<rect x="89.887" y="235.472" fill="#FFFFFF" width="13.048" height="7.705"/>
	<rect x="152.273" y="235.472" fill="#FFFFFF" width="13.049" height="7.705"/>
	<rect x="121.085" y="235.472" fill="#FFFFFF" width="13.049" height="7.705"/>
	<rect x="183.462" y="184.868" fill="#FFFFFF" width="13.048" height="16.979"/>
</g>
</svg>
