<?xml version="1.0" encoding="utf-8"?>
<!-- Generator: Adobe Illustrator 16.0.0, SVG Export Plug-In . SVG Version: 6.00 Build 0)  -->
<!DOCTYPE svg PUBLIC "-//W3C//DTD SVG 1.1//EN" "http://www.w3.org/Graphics/SVG/1.1/DTD/svg11.dtd">
<svg version="1.1" id="Layer_1" xmlns="http://www.w3.org/2000/svg" xmlns:xlink="http://www.w3.org/1999/xlink" x="0px" y="0px"
	 width="40px" height="40px" viewBox="0 0 40 40" enable-background="new 0 0 40 40" xml:space="preserve">
<g>
	<path fill="#FFFFFF" d="M5.077,3.2"/>
	<rect x="5.374" y="29.674" fill="#FFFFFF" width="29.252" height="2.03"/>
	<g>
		<polygon fill="#FFFFFF" points="9.212,6.487 9.212,25.554 11.243,25.554 11.243,8.036 		"/>
		<polygon fill="#FFFFFF" points="14.068,10.747 14.068,25.554 16.099,25.554 16.099,12.296 		"/>
		<polygon fill="#FFFFFF" points="18.924,15.007 18.924,25.554 20.955,25.554 20.955,16.555 		"/>
	</g>
	<polygon fill="#FFFFFF" points="28.633,6.487 28.633,25.554 30.662,25.554 30.662,8.036 	"/>
	<polygon fill="#FFFFFF" points="23.778,10.747 23.778,25.554 25.809,25.554 25.809,12.296 	"/>
	<polygon fill="#FFFFFF" points="4.358,2.229 4.358,37.771 6.389,37.771 6.389,3.746 	"/>
	<polygon fill="#FFFFFF" points="33.611,2.229 33.611,37.771 35.642,37.771 35.642,3.746 	"/>
	<rect x="14.068" y="28.695" fill="#FFFFFF" width="2.03" height="2.642"/>
	<rect x="9.212" y="28.695" fill="#FFFFFF" width="2.031" height="2.642"/>
	<rect x="23.778" y="28.695" fill="#FFFFFF" width="2.03" height="2.642"/>
	<rect x="18.924" y="28.695" fill="#FFFFFF" width="2.031" height="2.642"/>
	<rect x="14.068" y="36.571" fill="#FFFFFF" width="2.03" height="1.199"/>
	<rect x="23.778" y="36.571" fill="#FFFFFF" width="2.03" height="1.199"/>
	<rect x="18.924" y="36.571" fill="#FFFFFF" width="2.031" height="1.199"/>
	<rect x="28.633" y="28.695" fill="#FFFFFF" width="2.029" height="2.642"/>
</g>
</svg>
