<?xml version="1.0" encoding="utf-8"?>
<!-- Generator: Adobe Illustrator 16.0.0, SVG Export Plug-In . SVG Version: 6.00 Build 0)  -->
<!DOCTYPE svg PUBLIC "-//W3C//DTD SVG 1.1//EN" "http://www.w3.org/Graphics/SVG/1.1/DTD/svg11.dtd">
<svg version="1.1" id="Layer_1" xmlns="http://www.w3.org/2000/svg" xmlns:xlink="http://www.w3.org/1999/xlink" x="0px" y="0px"
	 width="40px" height="40px" viewBox="0 0 40 40" enable-background="new 0 0 40 40" xml:space="preserve">
<g>
	<g>
		<path fill="#FFFFFF" d="M8.802,36.253H2.946c-0.363,0-0.658-0.294-0.658-0.657s0.294-0.657,0.658-0.657h4.541V20
			c0-0.363,0.294-0.658,0.658-0.658S8.802,19.637,8.802,20V36.253z"/>
	</g>
	<g>
		<path fill="#FFFFFF" d="M37.054,36.253h-5.855V19.959c0-0.363,0.294-0.658,0.657-0.658s0.657,0.294,0.657,0.658v14.979h4.541
			c0.363,0,0.657,0.294,0.657,0.657S37.417,36.253,37.054,36.253z"/>
	</g>
	<g>
		<path fill="#FFFFFF" d="M31.693,36.253h-5.197c-0.363,0-0.657-0.294-0.657-0.657s0.294-0.657,0.657-0.657h5.197
			c0.363,0,0.657,0.294,0.657,0.657S32.057,36.253,31.693,36.253z"/>
	</g>
	<g>
		<path fill="#FFFFFF" d="M13.505,36.253H8.307c-0.363,0-0.658-0.294-0.658-0.657s0.294-0.657,0.658-0.657h5.198
			c0.363,0,0.658,0.294,0.658,0.657S13.869,36.253,13.505,36.253z"/>
	</g>
	<g>
		<path fill="#FFFFFF" d="M19.838,20.82c-0.363,0-0.658-0.294-0.658-0.658v-6.75c0-0.363,0.294-0.658,0.658-0.658
			s0.658,0.294,0.658,0.658v6.75C20.496,20.526,20.201,20.82,19.838,20.82z M23.817,20.658c-0.363,0-0.657-0.294-0.657-0.658V9.267
			c0-0.363,0.294-0.658,0.657-0.658s0.657,0.294,0.657,0.658V20C24.475,20.363,24.181,20.658,23.817,20.658z M15.858,20.658
			c-0.363,0-0.658-0.294-0.658-0.658V9.267c0-0.363,0.294-0.658,0.658-0.658s0.658,0.294,0.658,0.658V20
			C16.516,20.363,16.222,20.658,15.858,20.658z M27.796,20.617c-0.363,0-0.657-0.294-0.657-0.658V4.475
			c0-0.363,0.294-0.658,0.657-0.658s0.657,0.294,0.657,0.658v15.484C28.453,20.322,28.159,20.617,27.796,20.617z M11.88,20.617
			c-0.363,0-0.658-0.294-0.658-0.658V4.475c0-0.363,0.294-0.658,0.658-0.658s0.658,0.294,0.658,0.658v15.484
			C12.538,20.322,12.243,20.617,11.88,20.617z"/>
	</g>
	<g>
		<path fill="#FFFFFF" d="M31.855,28.455H8.145c-0.363,0-0.658-0.294-0.658-0.657s0.294-0.657,0.658-0.657h23.711
			c0.363,0,0.657,0.294,0.657,0.657S32.219,28.455,31.855,28.455z"/>
	</g>
	<g>
		<path fill="#FFFFFF" d="M8.145,20.658H2.946c-0.363,0-0.658-0.294-0.658-0.658s0.294-0.658,0.658-0.658h5.198
			c0.363,0,0.658,0.294,0.658,0.658S8.508,20.658,8.145,20.658z"/>
	</g>
	<g>
		<path fill="#FFFFFF" d="M37.054,20.617h-5.198c-0.363,0-0.657-0.294-0.657-0.658s0.294-0.658,0.657-0.658h5.198
			c0.363,0,0.657,0.294,0.657,0.658S37.417,20.617,37.054,20.617z"/>
	</g>
	<g>
		<path fill="#FFFFFF" d="M8.145,20.658c-0.363,0-0.658-0.294-0.658-0.658V5.062H2.946c-0.363,0-0.658-0.294-0.658-0.658
			s0.294-0.658,0.658-0.658h5.856V20C8.802,20.363,8.508,20.658,8.145,20.658z"/>
	</g>
	<g>
		<path fill="#FFFFFF" d="M31.855,20.617c-0.363,0-0.657-0.294-0.657-0.658V3.747h5.855c0.363,0,0.657,0.294,0.657,0.658
			s-0.294,0.658-0.657,0.658h-4.541v14.897C32.513,20.322,32.219,20.617,31.855,20.617z"/>
	</g>
</g>
</svg>
