<?xml version="1.0" encoding="utf-8"?>
<!-- Generator: Adobe Illustrator 16.0.0, SVG Export Plug-In . SVG Version: 6.00 Build 0)  -->
<!DOCTYPE svg PUBLIC "-//W3C//DTD SVG 1.1//EN" "http://www.w3.org/Graphics/SVG/1.1/DTD/svg11.dtd">
<svg version="1.1" id="Layer_1" xmlns="http://www.w3.org/2000/svg" xmlns:xlink="http://www.w3.org/1999/xlink" x="0px" y="0px"
	 width="256px" height="256px" viewBox="-63.625 -63.625 256 256" enable-background="new -63.625 -63.625 256 256"
	 xml:space="preserve">
<g>
	<g>
		<path fill="#FFFFFF" d="M23.792,123.281H2.569c-1.315,0-2.384-1.065-2.384-2.382c0-1.317,1.065-2.379,2.384-2.379h16.458V64.377
			c0-1.315,1.067-2.386,2.386-2.386s2.38,1.07,2.38,2.386V123.281z"/>
	</g>
	<g>
		<path fill="#FFFFFF" d="M126.186,123.281h-21.221V64.229c0-1.315,1.064-2.386,2.378-2.386c1.316,0,2.386,1.067,2.386,2.386v54.285
			h16.457c1.313,0,2.379,1.068,2.379,2.386C128.564,122.212,127.499,123.281,126.186,123.281z"/>
	</g>
	<g>
		<path fill="#FFFFFF" d="M106.755,123.281H87.919c-1.316,0-2.382-1.065-2.382-2.382c0-1.317,1.065-2.379,2.382-2.379h18.836
			c1.317,0,2.379,1.062,2.379,2.379C109.134,122.216,108.072,123.281,106.755,123.281z"/>
	</g>
	<g>
		<path fill="#FFFFFF" d="M40.837,123.281H21.999c-1.316,0-2.385-1.065-2.385-2.382c0-1.317,1.065-2.379,2.385-2.379h18.838
			c1.316,0,2.386,1.062,2.386,2.379C43.223,122.216,42.157,123.281,40.837,123.281z"/>
	</g>
	<g>
		<path fill="#FFFFFF" d="M63.789,67.351c-1.315,0-2.384-1.069-2.384-2.386V40.501c0-1.316,1.065-2.385,2.384-2.385
			c1.319,0,2.386,1.064,2.386,2.385v24.464C66.175,66.281,65.105,67.351,63.789,67.351z M78.208,66.762
			c-1.313,0-2.379-1.064-2.379-2.385V25.479c0-1.316,1.065-2.385,2.379-2.385c1.316,0,2.385,1.065,2.385,2.385v38.898
			C80.593,65.691,79.531,66.762,78.208,66.762z M49.364,66.762c-1.315,0-2.384-1.064-2.384-2.385V25.479
			c0-1.316,1.065-2.385,2.384-2.385c1.32,0,2.386,1.065,2.386,2.385v38.898C51.75,65.691,50.685,66.762,49.364,66.762z
			 M92.63,66.613c-1.313,0-2.382-1.064-2.382-2.385V8.112c0-1.317,1.069-2.385,2.382-2.385c1.317,0,2.383,1.065,2.383,2.385v56.117
			C95.013,65.543,93.947,66.613,92.63,66.613z M34.947,66.613c-1.314,0-2.384-1.064-2.384-2.385V8.112
			c0-1.317,1.065-2.385,2.384-2.385c1.32,0,2.386,1.065,2.386,2.385v56.117C37.333,65.543,36.264,66.613,34.947,66.613z"/>
	</g>
	<g>
		<path fill="#FFFFFF" d="M107.343,95.02H21.412c-1.315,0-2.386-1.065-2.386-2.382c0-1.313,1.067-2.382,2.386-2.382h85.931
			c1.316,0,2.386,1.069,2.386,2.382C109.729,93.954,108.659,95.02,107.343,95.02z"/>
	</g>
	<g>
		<path fill="#FFFFFF" d="M21.412,66.762H2.569c-1.315,0-2.384-1.064-2.384-2.385s1.065-2.386,2.384-2.386h18.839
			c1.314,0,2.384,1.065,2.384,2.386S22.727,66.762,21.412,66.762z"/>
	</g>
	<g>
		<path fill="#FFFFFF" d="M126.186,66.613h-18.843c-1.313,0-2.378-1.064-2.378-2.385c0-1.318,1.064-2.386,2.378-2.386h18.843
			c1.313,0,2.379,1.067,2.379,2.386C128.564,65.549,127.499,66.613,126.186,66.613z"/>
	</g>
	<g>
		<path fill="#FFFFFF" d="M21.412,66.762c-1.315,0-2.386-1.064-2.386-2.385V10.239H2.569c-1.315,0-2.384-1.065-2.384-2.386
			c0-1.318,1.065-2.383,2.384-2.383h21.223v58.907C23.792,65.691,22.727,66.762,21.412,66.762z"/>
	</g>
	<g>
		<path fill="#FFFFFF" d="M107.343,66.613c-1.316,0-2.382-1.064-2.382-2.385V5.473h21.218c1.316,0,2.382,1.065,2.382,2.384
			c0,1.32-1.065,2.385-2.382,2.385h-16.458v53.989C109.729,65.543,108.659,66.613,107.343,66.613z"/>
	</g>
</g>
</svg>
